# xmcd
#
# Track frame offsets: 
#        150
#        15729
#        32834
#        52373
#        70630
#        92104
#        115085
#        126726
#        153455
#        173636
#        199679
#
# Disc length: 2869 seconds
#
# Revision: 0
# Processed by: cddbd v1.5.2PL0 Copyright (c) Steve Scherf et al.
# Submitted via: ExactAudioCopyFreeDBPlugin 1.0
#
DISCID=990b330b
DTITLE=Herbert Grönemeyer - Mensch
DYEAR=2002
DGENRE=Pop
TTITLE0=Mensch
TTITLE1=Neuland
TTITLE2=Der Weg
TTITLE3=Viertel vor
TTITLE4=Lache, wenn es nicht zum Weinen reicht
TTITLE5=Unbewohnt
TTITLE6=Dort und hier
TTITLE7=Blick zurück
TTITLE8=Kein Pokal
TTITLE9=Zum Meer
TTITLE10=Letzter Tag
EXTD=
EXTT0=
EXTT1=
EXTT2=
EXTT3=
EXTT4=
EXTT5=
EXTT6=
EXTT7=
EXTT8=
EXTT9=
EXTT10=
PLAYORDER=
